<?xml version="1.0" encoding="UTF-8"?>
<svg id="Layer_2" xmlns="http://www.w3.org/2000/svg" viewBox="0 0 299.02 88.5">
  <defs>
    <style>
      .cls-1 {
        fill: #1d1d1b;
      }
    </style>
  </defs>
  <g id="katman_1">
    <g>
      <g>
        <path class="cls-1" d="M68.73,4.69l1.22.02c-3.94.01-8.08-.05-12.17-.13,8.88.66,19.37,1.24,26.24-.16.75.74,9.37,1.09,9.54.91,1.79-.14,3.6-.25,5.44-.34-1.26.05-2.52.11-3.76.18,1.25-.07,2.5-.13,3.76-.18,11.59-.58,24.17-.32,37.19-.04,7.22.14,26.84.31,34.25.52,1.07.03,2.14.05,3.22.07q-1.8-.07-3.59-.13c4.51-.2,8.61-.39,12.57-.52-.7-.11-.82-.21-2.47-.36l2.02.07c1.84-.31,6.09-.29,8.08-.42-.43.16,1.14.19,2.53.22l-.55-.11c5.27.07,11.38-.06,16.09-.04.66,0,1.15.06,1.45.12l4.51-.12c-.35.22,3.74.19,1.59.33,3.38-.26,6.8-.1,10.02-.36,11.51-.03,23.75-.2,35.65-.56l-.29-.08c4.17-.14,7.84-.57,12.9-.43,3.61-.29,8.76-.44,10.2-.89,4.17-.06,5.84-.29,9.93-.41-1.05-.22,3.97-.27,1.96-.44-2.71-.31-2.86-.05-5.17-.3l.07.08c-10.75-.34-21.51-.53-32.41-.63-7.27.19-15.16.03-22.72.09-8.14.08-16.94.23-23.92.41-1.67.06-2.87-.12-4.29-.23-6.42.1-14.59.02-21.83.15.14,0,.27,0,.35,0-3.85.04-6.73-.19-10.49-.15.02.06-.56.07-.85.1-.65-.3-22.12.62-23.44.45-.39.01-.79.03-1.21.03-7.93-.13-16.13-.71-22.94-.66-1.48.14-3.14.26-4.39.42-1.2-.13-1.43.12-2.89.09-3.68-.59-5.84-.35-3.94-.14-3.03.08-6.07.03-8.76.05-1.25.04-2.49.09-3.75.14-1.07.05-1.67-.04-2.2-.18-2.74.08-1.93-.06-4.8-.12-.69-.21-7.2.33-8.01.27l.47-.03c-3.32-.04-5.52-.44-8.77-.46-9.01-.15-18.85,0-27.2-.07-.08.22,1.84-.05,1.94.24-4.92-.04-9.89-.31-14.86-.34-.9-.06-1.99-.17-2.4-.24-1.59-.08-.94.1-2.1.08l-.16-.2c-1.7.16-2.48-.22-4.08-.14-.08.08-.67.09-1.24.08-.03-.21-1.75.01-1.67-.18l-.02.02c-.34,0-.59.01-1.01-.03-.65.07-6.75.64-7.41.73l-.31-.03c-.91,0-1.3.16-.77.2h-1.12s.13-.03.13-.03h-1.12c-.21-.03-.44-.13-.12-.22-.63.07-1.35.11-1.98.07,1.76.13,3.95.31,5.8.52-.76.07-2.13-.04-2.95-.02-.98-.14-3-.25-4.57-.35-.34.01-.58.24-1.36.14-.38-.16-.88,0-1.53-.11.75-.09,1.48-.05,2.24-.04-.13-.19-1.84-.13-2.44-.18-.28.06-1.74,0-2.66.05.4-.18-.74-.12-1.29-.21-.62-.02-1.02.05-.76.12-.2.2,2.46.12,1.6.33-.23-.1-1.44-.06-2.09-.05,0,.11.45.08.02.19-.73-.02-1.5.11-1.91,0,.14-.03.44-.01.65,0-.95-.01,5.13-.7,3.9-.64.32.1-5.39.64-4.76.65.58.05-.41.19.18.23l.66-.13c.82.04,1.15.23.86.3-1.37-.02,3.88-.74,2.71-.63l.47.05c-.5.07-1.82.13-2.33.02,0,.11-.67.14-1.22.18l-.2-.02c-.57.05-1.37.03-1,.17,3.35-.02-2.2,1.09,1.04,1.15-1.36-.24.46-.24,1.89-.27.14.08.77.2,1.8.26.89-.02.52-.09.69-.15.49.05,1.44.1,1.31.22.69-.15,1.11.09,1.94.04.73-.07-.05-.06.47-.14,1.1.02,2.64.04,3.52.07.34.12,1.37.32.62.5-1.67-.02.64-.29-1.1-.25.75.27-1.54.07-1.85.27.55.12,1.67.12,2.61.09l-.19-.04c.83-.04,2.48-.09,3.37.05-.21.09.18.16-.43.19l1.14.02c.14-.03.29-.06-.04-.08.54-.07,1.07-.03,1.49.02.12.1,6.05-.42,5.87-.35.82,0,1.02.15,1.82.04.08-.08-7.83.34-6.75.31.7.11,9.29-.49,9.8-.31.61,0,1.34-.03,1.2-.13,1.03.05-.31.19.42.29.02-.02-.06-.05.17-.05l.7.13c1.59-.16,3.93.05,5.6-.16-.48.11-1.03.3-2.11.4l-.19-.05c-.15.03-1.04.07-1.01.17,1.02.07,1.89.05,2.97-.05.2.03.43.05.58.08,0-.01-.02-.02-.02-.04.35.06.31.07.19.11-.02,0-.04.02-.07.02.64.29,4-.19,5.87-.03.55-.04.05-.05.73-.11,1.9.12,3.22.21,5.21.27.64-.13.69-.18-.08-.31l1.5.04c-1.37.34,2.81.32,1.3.66.44.08,1.34.09,2.18.04.08-.08.22-.22,1.28-.22,1.47.11,1.12.07,2.34.18.29.11-.16.15-.11.24,1.88-.14,1.64.24,3.42.22,1.11-.03,3.31-.05,3.36-.24,1.5,0,1.5.15,1.35.31Z"/>
        <path class="cls-1" d="M68.73,87.64l1.22.02c-3.94.01-8.08-.05-12.17-.13,8.88.66,19.37,1.24,26.24-.16.75.74,9.37,1.09,9.54.91,1.79-.14,3.6-.25,5.44-.34-1.26.05-2.52.11-3.76.18,1.25-.07,2.5-.13,3.76-.18,11.59-.58,24.17-.32,37.19-.04,7.22.14,26.84.31,34.25.52,1.07.03,2.14.05,3.22.07q-1.8-.07-3.59-.13c4.51-.2,8.61-.39,12.57-.52-.7-.11-.82-.21-2.47-.36l2.02.07c1.84-.31,6.09-.29,8.08-.42-.43.16,1.14.19,2.53.22l-.55-.11c5.27.07,11.38-.06,16.09-.04.66,0,1.15.06,1.45.12l4.51-.12c-.35.22,3.74.19,1.59.33,3.38-.26,6.8-.1,10.02-.36,11.51-.03,23.75-.2,35.65-.56l-.29-.08c4.17-.14,7.84-.57,12.9-.43,3.61-.29,8.76-.44,10.2-.89,4.17-.06,5.84-.29,9.93-.41-1.05-.22,3.97-.27,1.96-.44-2.71-.31-2.86-.05-5.17-.3l.07.08c-10.75-.34-21.51-.53-32.41-.63-7.27.19-15.16.03-22.72.09-8.14.08-16.94.23-23.92.41-1.67.06-2.87-.12-4.29-.23-6.42.1-14.59.02-21.83.15.14,0,.27,0,.35,0-3.85.04-6.73-.19-10.49-.15.02.06-.56.07-.85.1-.65-.3-22.12.62-23.44.45-.39.01-.79.03-1.21.03-7.93-.13-16.13-.71-22.94-.66-1.48.14-3.14.26-4.39.42-1.2-.13-1.43.12-2.89.09-3.68-.59-5.84-.35-3.94-.14-3.03.08-6.07.03-8.76.05-1.25.04-2.49.09-3.75.14-1.07.05-1.67-.04-2.2-.18-2.74.08-1.93-.06-4.8-.12-.69-.21-7.2.33-8.01.27l.47-.03c-3.32-.04-5.52-.44-8.77-.46-9.01-.15-18.85,0-27.2-.07-.08.22,1.84-.05,1.94.24-4.92-.04-9.89-.31-14.86-.34-.9-.06-1.99-.17-2.4-.24-1.59-.08-.94.1-2.1.08l-.16-.2c-1.7.16-2.48-.22-4.08-.14-.08.08-.67.09-1.24.08-.03-.21-1.75.01-1.67-.18l-.02.02c-.34,0-.59.01-1.01-.03-.65.07-6.75.64-7.41.73l-.31-.03c-.91,0-1.3.16-.77.2h-1.12s.13-.03.13-.03h-1.12c-.21-.03-.44-.13-.12-.22-.63.07-1.35.11-1.98.07,1.76.13,3.95.31,5.8.52-.76.07-2.13-.04-2.95-.02-.98-.14-3-.25-4.57-.35-.34.01-.58.24-1.36.14-.38-.16-.88,0-1.53-.11.75-.09,1.48-.05,2.24-.04-.13-.19-1.84-.13-2.44-.18-.28.06-1.74,0-2.66.05.4-.18-.74-.12-1.29-.21-.62-.02-1.02.05-.76.12-.2.2,2.46.12,1.6.33-.23-.1-1.44-.06-2.09-.05,0,.11.45.08.02.19-.73-.02-1.5.11-1.91,0,.14-.03.44-.01.65,0-.95-.01,5.13-.7,3.9-.64.32.1-5.39.64-4.76.65.58.05-.41.19.18.23l.66-.13c.82.04,1.15.23.86.3-1.37-.02,3.88-.74,2.71-.63l.47.05c-.5.07-1.82.13-2.33.02,0,.11-.67.14-1.22.18l-.2-.02c-.57.05-1.37.03-1,.17,3.35-.02-2.2,1.09,1.04,1.15-1.36-.24.46-.24,1.89-.27.14.08.77.2,1.8.26.89-.02.52-.09.69-.15.49.05,1.44.1,1.31.22.69-.15,1.11.09,1.94.04.73-.07-.05-.06.47-.14,1.1.02,2.64.04,3.52.07.34.12,1.37.32.62.5-1.67-.02.64-.29-1.1-.25.75.27-1.54.07-1.85.27.55.12,1.67.12,2.61.09l-.19-.04c.83-.04,2.48-.09,3.37.05-.21.09.18.16-.43.19l1.14.02c.14-.03.29-.06-.04-.08.54-.07,1.07-.03,1.49.02.12.1,6.05-.42,5.87-.35.82,0,1.02.15,1.82.04.08-.08-7.83.34-6.75.31.7.11,9.29-.49,9.8-.31.61,0,1.34-.03,1.2-.13,1.03.05-.31.19.42.29.02-.02-.06-.05.17-.05l.7.13c1.59-.16,3.93.05,5.6-.16-.48.11-1.03.3-2.11.4l-.19-.05c-.15.03-1.04.07-1.01.17,1.02.07,1.89.05,2.97-.05.2.03.43.05.58.08,0-.01-.02-.02-.02-.04.35.06.31.07.19.11-.02,0-.04.02-.07.02.64.29,4-.19,5.87-.03.55-.04.05-.05.73-.11,1.9.12,3.22.21,5.21.27.64-.13.69-.18-.08-.31l1.5.04c-1.37.34,2.81.32,1.3.66.44.08,1.34.09,2.18.04.08-.08.22-.22,1.28-.22,1.47.11,1.12.07,2.34.18.29.11-.16.15-.11.24,1.88-.14,1.64.24,3.42.22,1.11-.03,3.31-.05,3.36-.24,1.5,0,1.5.15,1.35.31Z"/>
      </g>
      <g>
        <path class="cls-1" d="M294.33,21.41l-.02.34c-.01-1.11.05-2.29.13-3.44-.66,2.51-1.24,5.48.16,7.42-.74.21-1.09,2.65-.91,2.7.14.51.25,1.02.34,1.54-.05-.36-.11-.71-.18-1.06.07.35.13.71.18,1.06.58,3.28.32,6.83.04,10.51-.14,2.04-.31,7.59-.52,9.68-.03.3-.05.61-.07.91q.07-.51.13-1.02c.2,1.28.39,2.43.52,3.55.11-.2.21-.23.36-.7l-.07.57c.31.52.29,1.72.42,2.29-.16-.12-.19.32-.22.72l.11-.16c-.07,1.49.06,3.22.04,4.55,0,.19-.06.32-.12.41l.12,1.28c-.22-.1-.19,1.06-.33.45.26.95.1,1.92.36,2.83.03,3.25.2,6.71.56,10.08l.08-.08c.14,1.18.57,2.21.43,3.65.29,1.02.44,2.48.89,2.88.06,1.18.29,1.65.41,2.81.22-.3.27,1.12.44.55.31-.77.05-.81.3-1.46l-.08.02c.34-3.04.53-6.08.63-9.16-.19-2.06-.03-4.28-.09-6.42-.08-2.3-.23-4.79-.41-6.76-.06-.47.12-.81.23-1.21-.1-1.81-.02-4.12-.15-6.17,0,.04,0,.08,0,.1-.04-1.09.19-1.9.15-2.96-.06,0-.07-.16-.1-.24.3-.18-.62-6.25-.45-6.63-.01-.11-.03-.22-.03-.34.13-2.24.71-4.56.66-6.48-.14-.42-.26-.89-.42-1.24.13-.34-.12-.41-.09-.82.59-1.04.35-1.65.14-1.11-.08-.86-.03-1.72-.05-2.48-.04-.35-.09-.7-.14-1.06-.05-.3.04-.47.18-.62-.08-.77.06-.55.12-1.36.21-.2-.33-2.03-.27-2.26l.03.13c.04-.94.44-1.56.46-2.48.15-2.55,0-5.33.07-7.69-.22-.02.05.52-.24.55.04-1.39.31-2.8.34-4.2.06-.25.17-.56.24-.68.08-.45-.1-.26-.08-.59l.2-.04c-.16-.48.22-.7.14-1.15-.08-.02-.09-.19-.08-.35.21,0-.01-.49.18-.47h-.02c0-.1-.01-.17.03-.29-.07-.18-.64-1.91-.73-2.09l.03-.09c0-.26-.16-.37-.2-.22v-.32s.03.04.03.04v-.32c.03-.06.13-.12.22-.03-.07-.18-.11-.38-.07-.56-.13.5-.31,1.12-.52,1.64-.07-.21.04-.6.02-.83.14-.28.25-.85.35-1.29-.01-.1-.24-.16-.14-.39.16-.11,0-.25.11-.43.09.21.05.42.04.63.19-.04.13-.52.18-.69-.06-.08,0-.49-.05-.75.18.11.12-.21.21-.36.02-.18-.05-.29-.12-.22-.2-.06-.12.7-.33.45.1-.06.06-.41.05-.59-.11,0-.08.13-.19,0,.02-.21-.11-.42,0-.54.03.04.01.12,0,.18.01-.27.7,1.45.64,1.1-.1.09-.64-1.52-.65-1.34-.05.16-.19-.12-.23.05l.13.19c-.04.23-.23.33-.3.24.02-.39.74,1.1.63.77l-.05.13c-.07-.14-.13-.51-.02-.66-.11,0-.14-.19-.18-.35l.02-.06c-.05-.16-.03-.39-.17-.28.02.95-1.09-.62-1.15.29.24-.39.24.13.27.53-.08.04-.2.22-.26.51.02.25.09.15.15.2-.05.14-.1.41-.22.37.15.2-.09.31-.04.55.07.21.06-.01.14.13-.02.31-.04.75-.07.99-.12.1-.32.39-.5.18.02-.47.29.18.26-.31-.27.21-.07-.43-.27-.52-.12.16-.12.47-.09.74l.04-.05c.04.23.09.7-.05.95-.09-.06-.16.05-.19-.12l-.02.32s.06.08.08,0c.07.15.03.3-.02.42-.1.04.42,1.71.35,1.66,0,.23-.15.29-.04.51.08.02-.34-2.21-.31-1.91-.11.2.49,2.63.31,2.77,0,.17.03.38.13.34-.05.29-.19-.09-.29.12.02,0,.05-.02.05.05l-.13.2c.16.45-.05,1.11.16,1.58-.11-.14-.3-.29-.4-.6l.05-.05s-.07-.29-.17-.29c-.07.29-.05.54.05.84-.03.06-.05.12-.08.17.01,0,.02,0,.04,0-.06.1-.07.09-.11.05,0,0-.02-.01-.02-.02-.29.18.19,1.13.03,1.66.04.16.05.01.11.21-.12.54-.21.91-.27,1.47.13.18.18.19.31-.02l-.04.42c-.34-.39-.32.79-.66.37-.08.12-.09.38-.04.62.08.02.22.06.22.36-.11.42-.07.32-.18.66-.11.08-.15-.04-.24-.03.14.53-.24.46-.22.97.03.31.05.94.24.95,0,.42-.15.42-.31.38Z"/>
        <path class="cls-1" d="M.85,21.41l-.02.34c-.01-1.11.05-2.29.13-3.44-.66,2.51-1.24,5.48.16,7.42-.74.21-1.09,2.65-.91,2.7.14.51.25,1.02.34,1.54-.05-.36-.11-.71-.18-1.06.07.35.13.71.18,1.06.58,3.28.32,6.83.04,10.51-.14,2.04-.31,7.59-.52,9.68-.03.3-.05.61-.07.91q.07-.51.13-1.02c.2,1.28.39,2.43.52,3.55.11-.2.21-.23.36-.7l-.07.57c.31.52.29,1.72.42,2.29-.16-.12-.19.32-.22.72l.11-.16c-.07,1.49.06,3.22.04,4.55,0,.19-.06.32-.12.41l.12,1.28c-.22-.1-.19,1.06-.33.45.26.95.1,1.92.36,2.83.03,3.25.2,6.71.56,10.08l.08-.08c.14,1.18.57,2.21.43,3.65.29,1.02.44,2.48.89,2.88.06,1.18.29,1.65.41,2.81.22-.3.27,1.12.44.55.31-.77.05-.81.3-1.46l-.08.02c.34-3.04.53-6.08.63-9.16-.19-2.06-.03-4.28-.09-6.42-.08-2.3-.23-4.79-.41-6.76-.06-.47.12-.81.23-1.21-.1-1.81-.02-4.12-.15-6.17,0,.04,0,.08,0,.1-.04-1.09.19-1.9.15-2.96-.06,0-.07-.16-.1-.24.3-.18-.62-6.25-.45-6.63-.01-.11-.03-.22-.03-.34.13-2.24.71-4.56.66-6.48-.14-.42-.26-.89-.42-1.24.13-.34-.12-.41-.09-.82.59-1.04.35-1.65.14-1.11-.08-.86-.03-1.72-.05-2.48-.04-.35-.09-.7-.14-1.06-.05-.3.04-.47.18-.62-.08-.77.06-.55.12-1.36.21-.2-.33-2.03-.27-2.26l.03.13c.04-.94.44-1.56.46-2.48.15-2.55,0-5.33.07-7.69-.22-.02.05.52-.24.55.04-1.39.31-2.8.34-4.2.06-.25.17-.56.24-.68.08-.45-.1-.26-.08-.59l.2-.04c-.16-.48.22-.7.14-1.15-.08-.02-.09-.19-.08-.35.21,0-.01-.49.18-.47h-.02c0-.1-.01-.17.03-.29-.07-.18-.64-1.91-.73-2.09l.03-.09c0-.26-.16-.37-.2-.22v-.32s.03.04.03.04v-.32c.03-.06.13-.12.22-.03-.07-.18-.11-.38-.07-.56-.13.5-.31,1.12-.52,1.64-.07-.21.04-.6.02-.83.14-.28.25-.85.35-1.29-.01-.1-.24-.16-.14-.39.16-.11,0-.25.11-.43.09.21.05.42.04.63.19-.04.13-.52.18-.69-.06-.08,0-.49-.05-.75.18.11.12-.21.21-.36.02-.18-.05-.29-.12-.22-.2-.06-.12.7-.33.45.1-.06.06-.41.05-.59-.11,0-.08.13-.19,0,.02-.21-.11-.42,0-.54.03.04.01.12,0,.18.01-.27.7,1.45.64,1.1-.1.09-.64-1.52-.65-1.34-.05.16-.19-.12-.23.05l.13.19c-.04.23-.23.33-.3.24.02-.39.74,1.1.63.77l-.05.13c-.07-.14-.13-.51-.02-.66-.11,0-.14-.19-.18-.35l.02-.06c-.05-.16-.03-.39-.17-.28.02.95-1.09-.62-1.15.29.24-.39.24.13.27.53-.08.04-.2.22-.26.51.02.25.09.15.15.2-.05.14-.1.41-.22.37.15.2-.09.31-.04.55.07.21.06-.01.14.13-.02.31-.04.75-.07.99-.12.1-.32.39-.5.18.02-.47.29.18.25-.31-.27.21-.07-.43-.27-.52-.12.16-.12.47-.09.74l.04-.05c.04.23.09.7-.05.95-.09-.06-.16.05-.19-.12l-.02.32s.06.08.08,0c.07.15.03.3-.02.42-.1.04.42,1.71.35,1.66,0,.23-.15.29-.04.51.08.02-.34-2.21-.31-1.91-.11.2.49,2.63.31,2.77,0,.17.03.38.13.34-.05.29-.19-.09-.29.12.02,0,.05-.02.05.05l-.13.2c.16.45-.05,1.11.16,1.58-.11-.14-.3-.29-.4-.6l.05-.05s-.07-.29-.17-.29c-.07.29-.05.54.05.84-.03.06-.05.12-.08.17.01,0,.02,0,.04,0-.06.1-.07.09-.11.05,0,0-.02-.01-.02-.02-.29.18.19,1.13.03,1.66.04.16.05.01.11.21-.12.54-.21.91-.27,1.47.13.18.18.19.31-.02l-.04.42c-.34-.39-.32.79-.66.37-.08.12-.09.38-.04.62.08.02.22.06.22.36-.11.42-.07.32-.18.66-.11.08-.15-.04-.24-.03.14.53-.24.46-.22.97.03.31.05.94.24.95,0,.42-.15.42-.31.38Z"/>
      </g>
    </g>
  </g>
</svg>