<?xml version="1.0" encoding="UTF-8"?>
<svg id="Layer_2" xmlns="http://www.w3.org/2000/svg" viewBox="0 0 318.31 116.82">
  <defs>
    <style>
      .cls-1 {
        fill: #1d1d1b;
      }
    </style>
  </defs>
  <g id="katman_1">
    <g>
      <path class="cls-1" d="M71.46,18.76l1.32.02c-4.27.01-8.75-.05-13.17-.13,9.62.66,20.98,1.24,28.41-.16.81.74,10.14,1.09,10.33.91,1.94-.14,3.9-.25,5.88-.34-1.37.05-2.72.11-4.07.18,1.35-.07,2.71-.13,4.07-.18,12.54-.58,26.17-.32,40.27-.04,7.82.14,29.06.31,37.08.52,1.16.03,2.32.05,3.49.07q-1.94-.07-3.89-.13c4.89-.2,9.32-.39,13.61-.52-.76-.11-.89-.21-2.68-.36l2.19.07c1.99-.31,6.59-.29,8.75-.42-.46.16,1.24.19,2.74.22l-.59-.11c5.7.07,12.32-.06,17.41-.04.71,0,1.24.06,1.56.12l4.89-.12c-.38.22,4.05.19,1.72.33,3.66-.26,7.37-.1,10.85-.36,12.46-.03,25.72-.2,38.6-.56l-.32-.08c4.51-.14,8.48-.57,13.97-.43,3.91-.29,9.48-.44,11.04-.89,4.52-.06,6.32-.29,10.75-.41-1.14-.22,4.3-.27,2.12-.44-2.94-.31-3.1-.05-5.59-.3l.07.08c-11.64-.34-23.29-.53-35.09-.63-7.87.19-16.41.03-24.59.09-8.81.08-18.34.23-25.9.41-1.8.06-3.1-.12-4.64-.23-6.95.1-15.8.02-23.64.15.15,0,.29,0,.38,0-4.17.04-7.29-.19-11.35-.15.02.06-.61.07-.92.1-.71-.3-23.95.62-25.38.45-.42.01-.86.03-1.31.03-8.59-.13-17.47-.71-24.84-.66-1.6.14-3.4.26-4.75.42-1.3-.13-1.55.12-3.12.09-3.99-.59-6.32-.35-4.26-.14-3.28.08-6.57.03-9.49.05-1.35.04-2.7.09-4.06.14-1.16.05-1.8-.04-2.39-.18-2.96.08-2.09-.06-5.2-.12-.75-.21-7.79.33-8.67.27l.51-.03c-3.59-.04-5.98-.44-9.49-.46-9.76-.15-20.41,0-29.45-.07-.09.22,1.99-.05,2.1.24-5.33-.04-10.71-.31-16.09-.34-.97-.06-2.16-.17-2.6-.24-1.72-.08-1.01.1-2.27.08l-.17-.2c-1.84.16-2.69-.22-4.42-.14-.09.08-.72.09-1.34.08-.03-.21-1.89.01-1.81-.18l-.02.02c-.37,0-.63.01-1.09-.03-.7.07-7.31.64-8.02.73l-.33-.03c-.99,0-1.41.16-.83.2h-1.22s.14-.03.14-.03h-1.21c-.22-.03-.48-.13-.13-.22-.69.07-1.46.11-2.14.07,1.91.13,4.28.31,6.28.52-.82.07-2.3-.04-3.19-.02-1.06-.14-3.24-.25-4.94-.35-.37.01-.63.24-1.48.14-.41-.16-.96,0-1.66-.11.81-.09,1.6-.05,2.42-.04-.14-.19-2-.13-2.64-.18-.3.06-1.89,0-2.88.05.43-.18-.8-.12-1.39-.21-.67-.02-1.1.05-.83.12-.22.2,2.67.12,1.73.33-.25-.1-1.56-.06-2.27-.05,0,.11.48.08.02.19-.79-.02-1.62.11-2.07,0,.15-.03.47-.01.7,0-1.02-.01,5.55-.7,4.22-.64.34.1-5.83.64-5.15.65.62.05-.45.19.2.23l.72-.13c.88.04,1.25.23.93.3-1.48-.02,4.2-.74,2.94-.63l.51.05c-.54.07-1.97.13-2.52.02,0,.11-.73.14-1.33.18l-.21-.02c-.62.05-1.48.03-1.08.17,3.63-.02-2.39,1.09,1.13,1.15-1.48-.24.5-.24,2.04-.27.15.08.84.2,1.95.26.96-.02.57-.09.75-.15.53.05,1.56.1,1.42.22.75-.15,1.2.09,2.1.04.79-.07-.05-.06.51-.14,1.19.02,2.86.04,3.81.07.37.12,1.48.32.67.5-1.81-.02.69-.29-1.19-.25.81.27-1.66.07-2,.27.6.12,1.81.12,2.83.09l-.2-.04c.89-.04,2.68-.09,3.65.05-.23.09.19.16-.46.19l1.23.02c.16-.03.32-.06-.04-.08.58-.07,1.16-.03,1.61.02.13.1,6.55-.42,6.35-.35.89,0,1.1.15,1.97.04.09-.08-8.48.34-7.31.31.76.11,10.06-.49,10.61-.31.66,0,1.45-.03,1.3-.13,1.11.05-.33.19.46.29.02-.02-.06-.05.19-.05l.76.13c1.73-.16,4.25.05,6.06-.16-.52.11-1.12.3-2.28.4l-.2-.05c-.17.03-1.12.07-1.09.17,1.1.07,2.05.05,3.21-.05.21.03.47.05.63.08,0-.01-.02-.02-.02-.04.38.06.34.07.2.11-.02,0-.04.02-.08.02.69.29,4.34-.19,6.35-.03.59-.04.06-.05.8-.11,2.06.12,3.48.21,5.64.27.69-.13.74-.18-.09-.31l1.63.04c-1.48.34,3.04.32,1.41.66.48.08,1.45.09,2.36.04.09-.08.23-.22,1.38-.22,1.6.11,1.22.07,2.54.18.31.11-.17.15-.12.24,2.04-.14,1.78.24,3.7.22,1.2-.03,3.58-.05,3.64-.24,1.62,0,1.62.15,1.46.31Z"/>
      <path class="cls-1" d="M71.46,101.72l1.32.02c-4.27.01-8.75-.05-13.17-.13,9.62.66,20.98,1.24,28.41-.16.81.74,10.14,1.09,10.33.91,1.94-.14,3.9-.25,5.88-.34-1.37.05-2.72.11-4.07.18,1.35-.07,2.71-.13,4.07-.18,12.54-.58,26.17-.32,40.27-.04,7.82.14,29.06.31,37.08.52,1.16.03,2.32.05,3.49.07q-1.94-.07-3.89-.13c4.89-.2,9.32-.39,13.61-.52-.76-.11-.89-.21-2.68-.36l2.19.07c1.99-.31,6.59-.29,8.75-.42-.46.16,1.24.19,2.74.22l-.59-.11c5.7.07,12.32-.06,17.41-.04.71,0,1.24.06,1.56.12l4.89-.12c-.38.22,4.05.19,1.72.33,3.66-.26,7.37-.1,10.85-.36,12.46-.03,25.72-.2,38.6-.56l-.32-.08c4.51-.14,8.48-.57,13.97-.43,3.91-.29,9.48-.44,11.04-.89,4.52-.06,6.32-.29,10.75-.41-1.14-.22,4.3-.27,2.12-.44-2.94-.31-3.1-.05-5.59-.3l.07.08c-11.64-.34-23.29-.53-35.09-.63-7.87.19-16.41.03-24.59.09-8.81.08-18.34.23-25.9.41-1.8.06-3.1-.12-4.64-.23-6.95.1-15.8.02-23.64.15.15,0,.29,0,.38,0-4.17.04-7.29-.19-11.35-.15.02.06-.61.07-.92.1-.71-.3-23.95.62-25.38.45-.42.01-.86.03-1.31.03-8.59-.13-17.47-.71-24.84-.66-1.6.14-3.4.26-4.75.42-1.3-.13-1.55.12-3.12.09-3.99-.59-6.32-.35-4.26-.14-3.28.08-6.57.03-9.49.05-1.35.04-2.7.09-4.06.14-1.16.05-1.8-.04-2.39-.18-2.96.08-2.09-.06-5.2-.12-.75-.21-7.79.33-8.67.27l.51-.03c-3.59-.04-5.98-.44-9.49-.46-9.76-.15-20.41,0-29.45-.07-.09.22,1.99-.05,2.1.24-5.33-.04-10.71-.31-16.09-.34-.97-.06-2.16-.17-2.6-.24-1.72-.08-1.01.1-2.27.08l-.17-.2c-1.84.16-2.69-.22-4.42-.14-.09.08-.72.09-1.34.08-.03-.21-1.89.01-1.81-.18l-.02.02c-.37,0-.63.01-1.09-.03-.7.07-7.31.64-8.02.73l-.33-.03c-.99,0-1.41.16-.83.2h-1.22s.14-.03.14-.03h-1.21c-.22-.03-.48-.13-.13-.22-.69.07-1.46.11-2.14.07,1.91.13,4.28.31,6.28.52-.82.07-2.3-.04-3.19-.02-1.06-.14-3.24-.25-4.94-.35-.37.01-.63.24-1.48.14-.41-.16-.96,0-1.66-.11.81-.09,1.6-.05,2.42-.04-.14-.19-2-.13-2.64-.18-.3.06-1.89,0-2.88.05.43-.18-.8-.12-1.39-.21-.67-.02-1.1.05-.83.12-.22.2,2.67.12,1.73.33-.25-.1-1.56-.06-2.27-.05,0,.11.48.08.02.19-.79-.02-1.62.11-2.07,0,.15-.03.47-.01.7,0-1.02-.01,5.55-.7,4.22-.64.34.1-5.83.64-5.15.65.62.05-.45.19.2.23l.72-.13c.88.04,1.25.23.93.3-1.48-.02,4.2-.74,2.94-.63l.51.05c-.54.07-1.97.13-2.52.02,0,.11-.73.14-1.33.18l-.21-.02c-.62.05-1.48.03-1.08.17,3.63-.02-2.39,1.09,1.13,1.15-1.48-.24.5-.24,2.04-.27.15.08.84.2,1.95.26.96-.02.57-.09.75-.15.53.05,1.56.1,1.42.22.75-.15,1.2.09,2.1.04.79-.07-.05-.06.51-.14,1.19.02,2.86.04,3.81.07.37.12,1.48.32.67.5-1.81-.02.69-.29-1.19-.25.81.27-1.66.07-2,.27.6.12,1.81.12,2.83.09l-.2-.04c.89-.04,2.68-.09,3.65.05-.23.09.19.16-.46.19l1.23.02c.16-.03.32-.06-.04-.08.58-.07,1.16-.03,1.61.02.13.1,6.55-.42,6.35-.35.89,0,1.1.15,1.97.04.09-.08-8.48.34-7.31.31.76.11,10.06-.49,10.61-.31.66,0,1.45-.03,1.3-.13,1.11.05-.33.19.46.29.02-.02-.06-.05.19-.05l.76.13c1.73-.16,4.25.05,6.06-.16-.52.11-1.12.3-2.28.4l-.2-.05c-.17.03-1.12.07-1.09.17,1.1.07,2.05.05,3.21-.05.21.03.47.05.63.08,0-.01-.02-.02-.02-.04.38.06.34.07.2.11-.02,0-.04.02-.08.02.69.29,4.34-.19,6.35-.03.59-.04.06-.05.8-.11,2.06.12,3.48.21,5.64.27.69-.13.74-.18-.09-.31l1.63.04c-1.48.34,3.04.32,1.41.66.48.08,1.45.09,2.36.04.09-.08.23-.22,1.38-.22,1.6.11,1.22.07,2.54.18.31.11-.17.15-.12.24,2.04-.14,1.78.24,3.7.22,1.2-.03,3.58-.05,3.64-.24,1.62,0,1.62.15,1.46.31Z"/>
    </g>
    <g>
      <path class="cls-1" d="M304.14,26.23l-.02.48c-.01-1.57.05-3.21.13-4.83-.66,3.53-1.24,7.7.16,10.43-.74.3-1.09,3.72-.91,3.79.14.71.25,1.43.34,2.16-.05-.5-.11-1-.18-1.49.07.49.13.99.18,1.49.58,4.6.32,9.6.04,14.78-.14,2.87-.31,10.67-.52,13.61-.03.43-.05.85-.07,1.28q.07-.71.13-1.43c.2,1.79.39,3.42.52,4.99.11-.28.21-.33.36-.98l-.07.8c.31.73.29,2.42.42,3.21-.16-.17-.19.45-.22,1.01l.11-.22c-.07,2.09.06,4.52.04,6.39,0,.26-.06.46-.12.57l.12,1.79c-.22-.14-.19,1.49-.33.63.26,1.34.1,2.7.36,3.98.03,4.57.2,9.44.56,14.16l.08-.12c.14,1.66.57,3.11.43,5.13.29,1.44.44,3.48.89,4.05.06,1.66.29,2.32.41,3.94.22-.42.27,1.58.44.78.31-1.08.05-1.14.3-2.05l-.08.03c.34-4.27.53-8.55.63-12.88-.19-2.89-.03-6.02-.09-9.03-.08-3.23-.23-6.73-.41-9.51-.06-.66.12-1.14.23-1.7-.1-2.55-.02-5.8-.15-8.67,0,.05,0,.11,0,.14-.04-1.53.19-2.67.15-4.17-.06,0-.07-.22-.1-.34.3-.26-.62-8.79-.45-9.32-.01-.16-.03-.32-.03-.48.13-3.15.71-6.41.66-9.11-.14-.59-.26-1.25-.42-1.74.13-.48-.12-.57-.09-1.15.59-1.46.35-2.32.14-1.56-.08-1.2-.03-2.41-.05-3.48-.04-.5-.09-.99-.14-1.49-.05-.42.04-.66.18-.88-.08-1.09.06-.77.12-1.91.21-.28-.33-2.86-.27-3.18l.03.19c.04-1.32.44-2.19.46-3.48.15-3.58,0-7.49.07-10.81-.22-.03.05.73-.24.77.04-1.96.31-3.93.34-5.9.06-.36.17-.79.24-.95.08-.63-.1-.37-.08-.83l.2-.06c-.16-.67.22-.99.14-1.62-.08-.03-.09-.27-.08-.49.21-.01-.01-.7.18-.66h-.02c0-.14-.01-.24.03-.41-.07-.26-.64-2.68-.73-2.94l.03-.12c0-.36-.16-.52-.2-.31v-.45s.03.05.03.05v-.44c.03-.08.13-.17.22-.05-.07-.25-.11-.53-.07-.79-.13.7-.31,1.57-.52,2.3-.07-.3.04-.84.02-1.17.14-.39.25-1.19.35-1.81-.01-.14-.24-.23-.14-.54.16-.15,0-.35.11-.61.09.3.05.59.04.89.19-.05.13-.73.18-.97-.06-.11,0-.69-.05-1.06.18.16.12-.29.21-.51.02-.25-.05-.4-.12-.3-.2-.08-.12.98-.33.64.1-.09.06-.57.05-.83-.11,0-.08.18-.19,0,.02-.29-.11-.59,0-.76.03.05.01.17,0,.26.01-.38.7,2.04.64,1.55-.1.13-.64-2.14-.65-1.89-.05.23-.2-.16-.23.07l.13.26c-.04.32-.23.46-.3.34.02-.54.74,1.54.63,1.08l-.05.19c-.07-.2-.13-.72-.02-.93-.11,0-.14-.27-.18-.49l.02-.08c-.05-.23-.03-.54-.17-.4.02,1.33-1.09-.88-1.15.41.24-.54.24.18.27.75-.08.05-.2.31-.26.72.02.35.09.21.15.28-.05.2-.1.57-.22.52.15.28-.09.44-.04.77.07.29.06-.02.14.19-.02.44-.04,1.05-.07,1.4-.12.13-.32.54-.5.25.02-.66.29.25.25-.44-.27.3-.07-.61-.27-.74-.12.22-.12.67-.09,1.04l.04-.07c.04.33.09.99-.05,1.34-.09-.08-.16.07-.19-.17l-.02.45c.03.06.06.12.08-.01.07.21.03.43-.02.59-.1.05.42,2.4.35,2.33,0,.33-.15.4-.04.72.08.03-.34-3.11-.31-2.68-.11.28.49,3.69.31,3.89,0,.24.03.53.13.48-.05.41-.19-.12-.29.17.02,0,.05-.02.05.07l-.13.28c.16.63-.05,1.56.16,2.22-.11-.19-.3-.41-.4-.84l.05-.07c-.03-.06-.07-.41-.17-.4-.07.41-.05.75.05,1.18-.03.08-.05.17-.08.23.01,0,.02,0,.04,0-.06.14-.07.12-.11.07,0,0-.02-.01-.02-.03-.29.25.19,1.59.03,2.33.04.22.05.02.11.29-.12.76-.21,1.28-.27,2.07.13.25.18.27.31-.03l-.04.6c-.34-.54-.32,1.12-.66.52-.08.17-.09.53-.04.87.08.03.22.09.22.51-.11.59-.07.45-.18.93-.11.11-.15-.06-.24-.04.14.75-.24.65-.22,1.36.03.44.05,1.31.24,1.34,0,.6-.15.6-.31.54Z"/>
      <path class="cls-1" d="M10.66,26.23l-.02.48c-.01-1.57.05-3.21.13-4.83-.66,3.53-1.24,7.7.16,10.43-.74.3-1.09,3.72-.91,3.79.14.71.25,1.43.34,2.16-.05-.5-.11-1-.18-1.49.07.49.13.99.18,1.49.58,4.6.32,9.6.04,14.78-.14,2.87-.31,10.67-.52,13.61-.03.43-.05.85-.07,1.28q.07-.71.13-1.43c.2,1.79.39,3.42.52,4.99.11-.28.21-.33.36-.98l-.07.8c.31.73.29,2.42.42,3.21-.16-.17-.19.45-.22,1.01l.11-.22c-.07,2.09.06,4.52.04,6.39,0,.26-.06.46-.12.57l.12,1.79c-.22-.14-.19,1.49-.33.63.26,1.34.1,2.7.36,3.98.03,4.57.2,9.44.56,14.16l.08-.12c.14,1.66.57,3.11.43,5.13.29,1.44.44,3.48.89,4.05.06,1.66.29,2.32.41,3.94.22-.42.27,1.58.44.78.31-1.08.05-1.14.3-2.05l-.08.03c.34-4.27.53-8.55.63-12.88-.19-2.89-.03-6.02-.09-9.03-.08-3.23-.23-6.73-.41-9.51-.06-.66.12-1.14.23-1.7-.1-2.55-.02-5.8-.15-8.67,0,.05,0,.11,0,.14-.04-1.53.19-2.67.15-4.17-.06,0-.07-.22-.1-.34.3-.26-.62-8.79-.45-9.32-.01-.16-.03-.32-.03-.48.13-3.15.71-6.41.66-9.11-.14-.59-.26-1.25-.42-1.74.13-.48-.12-.57-.09-1.15.59-1.46.35-2.32.14-1.56-.08-1.2-.03-2.41-.05-3.48-.04-.5-.09-.99-.14-1.49-.05-.42.04-.66.18-.88-.08-1.09.06-.77.12-1.91.21-.28-.33-2.86-.27-3.18l.03.19c.04-1.32.44-2.19.46-3.48.15-3.58,0-7.49.07-10.81-.22-.03.05.73-.24.77.04-1.96.31-3.93.34-5.9.06-.36.17-.79.24-.95.08-.63-.1-.37-.08-.83l.2-.06c-.16-.67.22-.99.14-1.62-.08-.03-.09-.27-.08-.49.21-.01-.01-.7.18-.66h-.02c0-.14-.01-.24.03-.41-.07-.26-.64-2.68-.73-2.94l.03-.12c0-.36-.16-.52-.2-.31v-.45s.03.05.03.05v-.44c.03-.08.13-.17.22-.05-.07-.25-.11-.53-.07-.79-.13.7-.31,1.57-.52,2.3-.07-.3.04-.84.02-1.17.14-.39.25-1.19.35-1.81-.01-.14-.24-.23-.14-.54.16-.15,0-.35.11-.61.09.3.05.59.04.89.19-.05.13-.73.18-.97-.06-.11,0-.69-.05-1.06.18.16.12-.29.21-.51.02-.25-.05-.4-.12-.3-.2-.08-.12.98-.33.64.1-.09.06-.57.05-.83-.11,0-.08.18-.19,0,.02-.29-.11-.59,0-.76.03.05.01.17,0,.26.01-.38.7,2.04.64,1.55-.1.13-.64-2.14-.65-1.89-.05.23-.19-.16-.23.07l.13.26c-.04.32-.23.46-.3.34.02-.54.74,1.54.63,1.08l-.05.19c-.07-.2-.13-.72-.02-.93-.11,0-.14-.27-.18-.49l.02-.08c-.05-.23-.03-.54-.17-.4.02,1.33-1.09-.88-1.15.41.24-.54.24.18.27.75-.08.05-.2.31-.26.72.02.35.09.21.15.28-.05.2-.1.57-.22.52.15.28-.09.44-.04.77.07.29.06-.02.14.19-.02.44-.04,1.05-.07,1.4-.12.13-.32.54-.5.25.02-.66.29.25.25-.44-.27.3-.07-.61-.27-.74-.12.22-.12.67-.09,1.04l.04-.07c.04.33.09.99-.05,1.34-.09-.08-.16.07-.19-.17l-.02.45c.03.06.06.12.08-.01.07.21.03.43-.02.59-.1.05.42,2.4.35,2.33,0,.33-.15.4-.04.72.08.03-.34-3.11-.31-2.68-.11.28.49,3.69.31,3.89,0,.24.03.53.13.48-.05.41-.19-.12-.29.17.02,0,.05-.02.05.07l-.13.28c.16.63-.05,1.56.16,2.22-.11-.19-.3-.41-.4-.84l.05-.07c-.03-.06-.07-.41-.17-.4-.07.41-.05.75.05,1.18-.03.08-.05.17-.08.23.01,0,.02,0,.04,0-.06.14-.07.12-.11.07,0,0-.02-.01-.02-.03-.29.25.19,1.59.03,2.33.04.22.05.02.11.29-.12.76-.21,1.28-.27,2.07.13.25.18.27.31-.03l-.04.6c-.34-.54-.32,1.12-.66.52-.08.17-.09.53-.04.87.08.03.22.09.22.51-.11.59-.07.45-.18.93-.11.11-.15-.06-.24-.04.14.75-.24.65-.22,1.36.03.44.05,1.31.24,1.34,0,.6-.15.6-.31.54Z"/>
    </g>
  </g>
</svg>